<svg width="146.992724609375px" height="122px" xmlns="http://www.w3.org/2000/svg" viewBox="176.5036376953125 14 146.992724609375 122" style="background:#051103" preserveAspectRatio="xMidYMid"><defs><linearGradient id="editing-glowing-gradient" x1="0.81" x2="0.18" y1="0.88" y2="0.11"><stop offset="0" stop-color="#67ff43"></stop><stop offset="1" stop-color="#90ffff"></stop></linearGradient><filter id="editing-glowing" x="-100%" y="-100%" width="300%" height="300%"><feGaussianBlur in="SourceGraphic" result="blur" stdDeviation="10"></feGaussianBlur><feMerge><feMergeNode in="blur"></feMergeNode><feMergeNode in="SourceGraphic"></feMergeNode></feMerge></filter></defs><g filter="url(#editing-glowing)"><g transform="translate(205.22809028625488, 97.39999961853027)"><path d="M29.18 1.28L29.18 1.28L29.18 1.28Q20.99 1.28 20.22-10.37L20.22-10.37L9.22-10.37L9.22-10.37Q7.94-7.42 7.04-4.86L7.04-4.86L5.38 0L-3.58 0L16.58-42.24L30.34-42.24L33.02-11.14L33.02-11.14Q33.66-4.42 36.22-2.43L36.22-2.43L36.22-2.43Q34.37 1.28 29.18 1.28ZM14.72-23.17L11.20-15.04L20.03-15.04L19.26-31.49L19.26-33.22L14.72-23.17ZM78.08-29.57L78.08-29.57L78.08-29.57Q79.04-31.49 79.04-33.28L79.04-33.28L79.04-33.28Q79.04-35.07 78.85-36.06L78.85-36.06L78.85-36.06Q78.66-37.06 78.21-37.82L78.21-37.82L78.21-37.82Q77.25-39.49 75.33-39.49L75.33-39.49L75.33-39.49Q72.96-39.49 71.04-37.76L71.04-37.76L71.04-37.76Q68.99-35.97 68.99-33.15L68.99-33.15L68.99-33.15Q68.99-31.36 70.24-29.98L70.24-29.98L70.24-29.98Q71.49-28.61 73.41-27.33L73.41-27.33L73.41-27.33Q75.33-26.05 77.50-24.77L77.50-24.77L77.50-24.77Q79.68-23.49 81.60-21.95L81.60-21.95L81.60-21.95Q86.02-18.43 86.02-13.70L86.02-13.70L86.02-13.70Q86.02-10.50 84.32-7.78L84.32-7.78L84.32-7.78Q82.62-5.06 79.81-3.07L79.81-3.07L79.81-3.07Q73.66 1.28 65.54 1.28L65.54 1.28L65.54 1.28Q58.94 1.28 55.55-0.86L55.55-0.86L55.55-0.86Q52.16-3.01 52.16-6.27L52.16-6.27L52.16-6.27Q52.16-12.10 56.70-13.57L56.70-13.57L56.70-13.57Q57.98-14.02 59.94-14.02L59.94-14.02L59.94-14.02Q61.89-14.02 64.13-13.18L64.13-13.18L64.13-13.18Q63.10-10.56 63.10-8.19L63.10-8.19L63.10-8.19Q63.10-3.07 66.75-3.07L66.75-3.07L66.75-3.07Q69.12-3.07 71.07-4.80L71.07-4.80L71.07-4.80Q73.02-6.53 73.02-8.48L73.02-8.48L73.02-8.48Q73.02-10.43 71.78-11.84L71.78-11.84L71.78-11.84Q70.53-13.25 68.67-14.37L68.67-14.37L68.67-14.37Q66.82-15.49 64.67-16.58L64.67-16.58L64.67-16.58Q62.53-17.66 60.67-19.20L60.67-19.20L60.67-19.20Q56.32-22.72 56.32-28.35L56.32-28.35L56.32-28.35Q56.32-32 58.11-34.85L58.11-34.85L58.11-34.85Q59.90-37.70 62.78-39.62L62.78-39.62L62.78-39.62Q68.54-43.52 75.62-43.52L75.62-43.52L75.62-43.52Q82.69-43.52 86.11-41.41L86.11-41.41L86.11-41.41Q89.54-39.30 89.54-35.71L89.54-35.71L89.54-35.71Q89.54-32.58 87.10-30.59L87.10-30.59L87.10-30.59Q84.99-28.93 82.43-28.93L82.43-28.93L82.43-28.93Q79.87-28.93 78.08-29.57Z" fill="url(#editing-glowing-gradient)"></path></g></g><style>text {
  font-size: 64px;
  font-family: Arial Black;
  dominant-baseline: central;
  text-anchor: middle;
}</style></svg>